# xmcd CD database file
#
# Track frame offsets:
#	150
#	20522
#	41615
#	61762
#	80681
#	103144
#	122345
#	139310
#	161708
#	183285
#	201353
#
# Disc length: 2967 seconds
#
# Revision: 4
# Processed by: cddbd v1.5PL3 Copyright (c) Steve Scherf et al.
# Submitted via: CDex 1.50Beta3
#
DISCID=950b950b
DTITLE=小松未歩 - 小松未歩4〜A thousand feelings〜
DYEAR=2001
DGENRE=J-pop
TTITLE0=君の瞳には映らない
TTITLE1=あなたがいるから
TTITLE2=at him!
TTITLE3=ただ傍にいたいの
TTITLE4=I don't know the truth
TTITLE5=Love Gone -Album Mix-
TTITLE6=ともだち以上
TTITLE7=regret
TTITLE8=幸せのかたち
TTITLE9=哀しい恋
TTITLE10=Hold me tight
EXTD=YEAR: 2001
EXTT0=
EXTT1=
EXTT2=
EXTT3=
EXTT4=
EXTT5=
EXTT6=
EXTT7=
EXTT8=
EXTT9=
EXTT10=
PLAYORDER=
